<svg width="24" height="24" viewBox="0 0 24 24" fill="none" xmlns="http://www.w3.org/2000/svg">
<rect width="24" height="24" rx="4" fill="white"/>
<path d="M13.997 17C13.7785 17.0019 13.568 16.9179 13.4108 16.7661L9.24394 12.5994C9.08771 12.4431 8.99994 12.2312 8.99994 12.0102C8.99994 11.7893 9.08771 11.5773 9.24394 11.4211L13.4108 7.25441C13.4877 7.17481 13.5797 7.11133 13.6813 7.06766C13.783 7.02398 13.8924 7.00099 14.003 7.00003C14.1137 6.99907 14.2234 7.02015 14.3258 7.06205C14.4282 7.10396 14.5213 7.16583 14.5995 7.24408C14.6778 7.32232 14.7397 7.41537 14.7816 7.51778C14.8235 7.62019 14.8446 7.72993 14.8436 7.84057C14.8426 7.95122 14.8196 8.06057 14.776 8.16224C14.7323 8.26391 14.6688 8.35587 14.5892 8.43274L11.0115 12.0102L14.5892 15.5877C14.741 15.7449 14.825 15.9554 14.8231 16.1739C14.8212 16.3924 14.7336 16.6014 14.5791 16.7559C14.4245 16.9104 14.2155 16.9981 13.997 17Z" fill="black"/>
</svg>
