<svg width="62" height="62" viewBox="0 0 62 62" fill="none" xmlns="http://www.w3.org/2000/svg">
<g filter="url(#filter0_d)">
<rect x="6" y="2" width="50" height="50" rx="25" fill="url(#paint0_linear)"/>
</g>
<path fill-rule="evenodd" clip-rule="evenodd" d="M21.3532 13.0333C18.9716 13.0333 17.0332 14.9702 17.0332 17.3533V36.648C17.0332 39.0296 18.9701 40.968 21.3532 40.968H40.6479C43.0295 40.968 44.9679 39.0311 44.9679 36.648V17.3531C44.9664 14.9703 43.0296 13.0333 40.6465 13.0333H21.3532ZM19.2412 17.3533C19.2412 16.1896 20.1883 15.2413 21.3532 15.2413H40.6479C41.8116 15.2413 42.7599 16.1885 42.7599 17.3533V31.0753L39.0385 27.9749L34.2458 31.9677L25.2946 23.8285L19.2412 30.5542V17.3533ZM42.7599 33.9472V36.3467H42.7585V36.6467C42.7585 37.8104 41.8114 38.7587 40.6465 38.7587H21.3532C20.1894 38.7587 19.2412 37.8115 19.2412 36.6467V33.8538L25.4505 26.9541L34.1846 34.8936L39.0399 30.8478L42.7599 33.9472Z" fill="white"/>
<path fill-rule="evenodd" clip-rule="evenodd" d="M36.6276 17.052C34.246 17.052 32.3076 18.9889 32.3076 21.372C32.3076 23.755 34.2446 25.692 36.6276 25.692C39.0092 25.692 40.9476 23.7551 40.9476 21.372C40.9476 18.989 39.0106 17.052 36.6276 17.052ZM34.5156 21.3733C34.5156 20.2084 35.4626 19.2613 36.6276 19.2613C37.7914 19.2613 38.7396 20.2085 38.7396 21.3733C38.7396 22.5383 37.7926 23.4853 36.6276 23.4853C35.4626 23.4853 34.5156 22.5383 34.5156 21.3733Z" fill="white"/>
<defs>
<filter id="filter0_d" x="0" y="0" width="62" height="62" filterUnits="userSpaceOnUse" color-interpolation-filters="sRGB">
<feFlood flood-opacity="0" result="BackgroundImageFix"/>
<feColorMatrix in="SourceAlpha" type="matrix" values="0 0 0 0 0 0 0 0 0 0 0 0 0 0 0 0 0 0 127 0"/>
<feOffset dy="4"/>
<feGaussianBlur stdDeviation="3"/>
<feColorMatrix type="matrix" values="0 0 0 0 0 0 0 0 0 0 0 0 0 0 0 0 0 0 0.1 0"/>
<feBlend mode="normal" in2="BackgroundImageFix" result="effect1_dropShadow"/>
<feBlend mode="normal" in="SourceGraphic" in2="effect1_dropShadow" result="shape"/>
</filter>
<linearGradient id="paint0_linear" x1="25.5335" y1="45.75" x2="25.5335" y2="7.83333" gradientUnits="userSpaceOnUse">
<stop stop-color="#53B824"/>
<stop offset="1" stop-color="#81D219"/>
</linearGradient>
</defs>
</svg>
