<svg width="14" height="9" viewBox="0 0 14 9" fill="none" xmlns="http://www.w3.org/2000/svg">
<path d="M14 1.18526C14.0026 1.49117 13.885 1.78589 13.6725 2.00594L7.83917 7.83956C7.62039 8.05828 7.32369 8.18116 7.01434 8.18116C6.70498 8.18116 6.40829 8.05828 6.1895 7.83956L0.356169 2.00594C0.244739 1.89831 0.155863 1.76957 0.0947189 1.62722C0.033575 1.48488 0.00138945 1.33178 4.28696e-05 1.17686C-0.00130276 1.02195 0.0282154 0.868312 0.0868768 0.724926C0.145537 0.581539 0.232169 0.451273 0.34171 0.341726C0.451252 0.232179 0.581512 0.145546 0.724891 0.0868821C0.86827 0.0282182 1.02189 -0.00130277 1.1768 4.34197e-05C1.33171 0.00138961 1.4848 0.0335752 1.62714 0.0947221C1.76948 0.155869 1.89822 0.244753 2.00584 0.356187L7.01434 5.36494L12.0228 0.356188C12.2429 0.14366 12.5376 0.0260604 12.8435 0.0287187C13.1494 0.031377 13.442 0.15408 13.6583 0.3704C13.8746 0.58672 13.9973 0.87935 14 1.18526Z" fill="#999999"/>
</svg>
