<svg width="24" height="24" viewBox="0 0 24 24" fill="none" xmlns="http://www.w3.org/2000/svg">
<path fill-rule="evenodd" clip-rule="evenodd" d="M8.98295 2.70001C8.19573 2.70001 7.43004 3.06443 7.15428 3.88735L6.51198 5.70001H4.40095C3.56179 5.70001 2.87751 6.05299 2.40844 6.61911C1.94365 7.18007 1.69995 7.93686 1.69995 8.74301V18.513C1.69995 19.3211 1.94521 20.0226 2.42201 20.5242C2.90062 21.0277 3.58433 21.3 4.40095 21.3H19.5979C20.415 21.3 21.099 21.0277 21.5777 20.5242C22.0547 20.0226 22.2999 19.3211 22.2999 18.513V8.74301C22.2999 7.93686 22.0563 7.18007 21.5915 6.61911C21.1224 6.05299 20.4381 5.70001 19.599 5.70001H17.4879L16.8456 3.88733C16.5699 3.06443 15.8042 2.70001 15.017 2.70001H8.98295ZM8.75256 4.36688C8.75846 4.34916 8.76415 4.34259 8.76618 4.34041C8.76854 4.33788 8.774 4.33283 8.78764 4.32675C8.82064 4.31203 8.88092 4.30001 8.98295 4.30001H15.017C15.1044 4.30001 15.1619 4.31514 15.195 4.33251C15.2202 4.34572 15.2359 4.36155 15.2472 4.39551L16.086 6.81882C16.1512 7.01212 16.2819 7.14214 16.4412 7.21602C16.5886 7.28444 16.7492 7.30001 16.885 7.30001H19.599C19.9415 7.30001 20.2062 7.45675 20.3945 7.71287C20.588 7.97602 20.7 8.34635 20.7 8.74301V18.513C20.7 18.9078 20.5898 19.2 20.4151 19.3905C20.2437 19.5774 19.9795 19.7 19.599 19.7H4.40095C4.0204 19.7 3.75621 19.5774 3.58479 19.3905C3.41008 19.2 3.29995 18.9078 3.29995 18.513V8.74301C3.29995 8.34635 3.41186 7.97602 3.60538 7.71287C3.79374 7.45675 4.05844 7.30001 4.40095 7.30001H7.11495C7.41774 7.30001 7.78217 7.17436 7.91384 6.78403L8.75139 4.37037L8.75256 4.36688Z" fill="#999999"/>
<path fill-rule="evenodd" clip-rule="evenodd" d="M12 7.35797C8.84129 7.35797 6.27197 9.92729 6.27197 13.086C6.27197 16.2447 8.84136 18.813 12 18.813C15.1587 18.813 17.728 16.2437 17.728 13.085C17.728 9.92621 15.1586 7.35797 12 7.35797ZM7.95797 13.086C7.95797 10.8576 9.77175 9.04297 12 9.04297C14.2283 9.04297 16.042 10.8567 16.042 13.085C16.042 15.3134 14.2282 17.128 12 17.128C9.77166 17.128 7.95797 15.3143 7.95797 13.086Z" fill="#999999"/>
</svg>
