<svg width="24" height="24" viewBox="0 0 24 24" fill="none" xmlns="http://www.w3.org/2000/svg">
<rect width="24" height="24" rx="4" fill="white"/>
<path d="M9.84662 7.00003C10.0651 6.99813 10.2756 7.08213 10.4328 7.23393L14.5997 11.4006C14.7559 11.5569 14.8437 11.7688 14.8437 11.9898C14.8437 12.2107 14.7559 12.4227 14.5997 12.5789L10.4328 16.7456C10.3559 16.8252 10.264 16.8887 10.1623 16.9323C10.0606 16.976 9.95127 16.999 9.84062 17C9.72996 17.0009 9.62022 16.9798 9.5178 16.9379C9.41539 16.896 9.32234 16.8342 9.24409 16.7559C9.16584 16.6777 9.10396 16.5846 9.06206 16.4822C9.02016 16.3798 8.99907 16.2701 9.00003 16.1594C9.00099 16.0488 9.02398 15.9394 9.06766 15.8378C9.11134 15.7361 9.17482 15.6441 9.25442 15.5673L12.8321 11.9898L9.25442 8.41226C9.10261 8.25509 9.01861 8.04459 9.02051 7.82609C9.02241 7.60759 9.11006 7.39858 9.26457 7.24408C9.41909 7.08957 9.62811 7.00193 9.84662 7.00003Z" fill="black"/>
</svg>
