<svg width="45" height="45" viewBox="0 0 45 45" fill="none" xmlns="http://www.w3.org/2000/svg">
<path d="M17.2659 29.0938L16.6565 32.6719C16.5627 33.25 16.7971 33.8281 17.2659 34.1719C17.5315 34.375 17.844 34.4688 18.1721 34.4688C18.4221 34.4688 18.6565 34.4063 18.8909 34.2969L22.1096 32.6094L25.3284 34.2969C25.844 34.5781 26.469 34.5313 26.9534 34.1875C27.4377 33.8438 27.6721 33.2656 27.5627 32.6875L26.9534 29.1094L29.5471 26.5781C29.969 26.1719 30.1252 25.5625 29.9377 25C29.7502 24.4375 29.2815 24.0313 28.7034 23.9531L25.1096 23.4375L23.5002 20.1875C23.2346 19.6563 22.7034 19.3281 22.1252 19.3281C21.5315 19.3281 21.0002 19.6563 20.7502 20.1875L19.1409 23.4375L15.5471 23.9531C14.969 24.0313 14.4846 24.4375 14.3127 25C14.1252 25.5625 14.2815 26.1719 14.7034 26.5781L17.2659 29.0938ZM19.7346 24.8906C19.9846 24.8594 20.2034 24.6875 20.3127 24.4688L22.0784 20.8438L23.8596 24.4688C23.969 24.7031 24.1877 24.8594 24.4377 24.8906L28.4221 25.4531L25.5471 28.2656C25.3596 28.4375 25.2815 28.7031 25.3284 28.9531L26.0315 32.9219L22.4534 31.0469C22.2346 30.9219 21.9534 30.9219 21.7346 31.0469L18.1877 32.9219L18.8752 28.9375C18.9221 28.6875 18.8284 28.4219 18.6565 28.25L15.7502 25.4531L19.7346 24.8906Z" fill="#F36A1C"/>
<path d="M38.7344 8.125H34.3594V5.78125C34.3594 5.35937 34.0156 5 33.5781 5C33.1406 5 32.7969 5.34375 32.7969 5.78125V8.125H11.3906V5.78125C11.3906 5.35937 11.0469 5 10.6094 5C10.1875 5 9.82812 5.34375 9.82812 5.78125V8.125H5.45312C4.09375 8.125 3 9.21875 3 10.5781V14.4687V37.6094C3 38.9687 4.09375 40.0625 5.45312 40.0625H38.7344C40.0938 40.0625 41.1875 38.9687 41.1875 37.6094V14.4687V10.5781C41.1875 9.21875 40.0781 8.125 38.7344 8.125ZM39.6406 37.6094C39.6406 38.1094 39.2344 38.5156 38.7344 38.5156H5.45312C4.95312 38.5156 4.54688 38.1094 4.54688 37.6094V15.25H39.625V37.6094H39.6406ZM39.6406 13.7031H4.54688V10.5781C4.54688 10.0781 4.95312 9.67188 5.45312 9.67188H38.7344C39.2344 9.67188 39.6406 10.0781 39.6406 10.5781V13.7031Z" fill="#F36A1C"/>
</svg>
