<svg width="18" height="18" viewBox="0 0 18 18" fill="none" xmlns="http://www.w3.org/2000/svg">
<circle cx="9" cy="9" r="9" fill="#999999"/>
<path d="M5.57151 5.57141C5.25592 5.887 5.25592 6.39868 5.57151 6.71427L7.8572 8.99996L5.57141 11.2857C5.25582 11.6013 5.25582 12.113 5.57141 12.4286C5.887 12.7442 6.39868 12.7442 6.71427 12.4286L9.00006 10.1428L11.2858 12.4286C11.6014 12.7442 12.1131 12.7442 12.4287 12.4286C12.7443 12.113 12.7443 11.6013 12.4287 11.2857L10.1429 8.99996L12.4286 6.71431C12.7442 6.39871 12.7442 5.88704 12.4286 5.57145C12.113 5.25586 11.6013 5.25586 11.2857 5.57145L9.00005 7.8571L6.71437 5.57141C6.39878 5.25582 5.8871 5.25582 5.57151 5.57141Z" fill="#EEEEEE"/>
</svg>
