<svg width="62" height="62" viewBox="0 0 62 62" fill="none" xmlns="http://www.w3.org/2000/svg">
<g filter="url(#filter0_d)">
<rect x="6" y="2" width="50" height="50" rx="25" fill="url(#paint0_linear)"/>
</g>
<path d="M39 40H23C21.674 40 20.4022 39.4732 19.4645 38.5355C18.5268 37.5979 18 36.3261 18 35C17.999 34.8807 18.0193 34.7622 18.06 34.65C19.021 32.115 20.7284 29.931 22.9566 28.3867C25.1847 26.8423 27.829 26.0101 30.54 26H31.46C34.1711 26.0101 36.8153 26.8423 39.0435 28.3867C41.2717 29.931 42.979 32.115 43.94 34.65C43.9808 34.7622 44.0011 34.8807 44 35C44 36.3261 43.4733 37.5979 42.5356 38.5355C41.5979 39.4732 40.3261 40 39 40ZM20 35.17C20.0435 35.9358 20.3787 36.6559 20.9366 37.1823C21.4946 37.7086 22.233 38.0012 23 38H39C39.7671 38.0012 40.5055 37.7086 41.0634 37.1823C41.6214 36.6559 41.9566 35.9358 42 35.17C41.1584 33.0601 39.7052 31.2501 37.827 29.9724C35.9489 28.6948 33.7316 28.0079 31.46 28H30.54C28.2685 28.0079 26.0512 28.6948 24.173 29.9724C22.2949 31.2501 20.8416 33.0601 20 35.17Z" fill="white"/>
<path d="M31 25C29.8133 25 28.6533 24.6481 27.6666 23.9888C26.6799 23.3295 25.9109 22.3925 25.4567 21.2961C25.0026 20.1997 24.8838 18.9933 25.1153 17.8295C25.3468 16.6656 25.9182 15.5965 26.7574 14.7574C27.5965 13.9182 28.6656 13.3468 29.8295 13.1153C30.9933 12.8838 32.1997 13.0026 33.2961 13.4567C34.3925 13.9109 35.3295 14.6799 35.9888 15.6666C36.6481 16.6533 37 17.8133 37 19C37 20.5913 36.3679 22.1174 35.2426 23.2426C34.1174 24.3679 32.5913 25 31 25ZM31 15C30.2089 15 29.4355 15.2346 28.7777 15.6741C28.1199 16.1136 27.6072 16.7384 27.3045 17.4693C27.0017 18.2002 26.9225 19.0044 27.0769 19.7804C27.2312 20.5563 27.6122 21.269 28.1716 21.8284C28.731 22.3878 29.4437 22.7688 30.2196 22.9231C30.9956 23.0775 31.7998 22.9983 32.5307 22.6955C33.2616 22.3928 33.8864 21.8801 34.3259 21.2223C34.7654 20.5645 35 19.7911 35 19C35 17.9391 34.5786 16.9217 33.8284 16.1716C33.0783 15.4214 32.0609 15 31 15Z" fill="white"/>
<path d="M39 40H23C21.674 40 20.4022 39.4732 19.4645 38.5355C18.5268 37.5979 18 36.3261 18 35C17.999 34.8807 18.0193 34.7622 18.06 34.65C19.021 32.115 20.7284 29.931 22.9566 28.3867C25.1847 26.8423 27.829 26.0101 30.54 26H31.46C34.1711 26.0101 36.8153 26.8423 39.0435 28.3867C41.2717 29.931 42.979 32.115 43.94 34.65C43.9808 34.7622 44.0011 34.8807 44 35C44 36.3261 43.4733 37.5979 42.5356 38.5355C41.5979 39.4732 40.3261 40 39 40ZM20 35.17C20.0435 35.9358 20.3787 36.6559 20.9366 37.1823C21.4946 37.7086 22.233 38.0012 23 38H39C39.7671 38.0012 40.5055 37.7086 41.0634 37.1823C41.6214 36.6559 41.9566 35.9358 42 35.17C41.1584 33.0601 39.7052 31.2501 37.827 29.9724C35.9489 28.6948 33.7316 28.0079 31.46 28H30.54C28.2685 28.0079 26.0512 28.6948 24.173 29.9724C22.2949 31.2501 20.8416 33.0601 20 35.17Z" fill="white"/>
<defs>
<filter id="filter0_d" x="0" y="0" width="62" height="62" filterUnits="userSpaceOnUse" color-interpolation-filters="sRGB">
<feFlood flood-opacity="0" result="BackgroundImageFix"/>
<feColorMatrix in="SourceAlpha" type="matrix" values="0 0 0 0 0 0 0 0 0 0 0 0 0 0 0 0 0 0 127 0"/>
<feOffset dy="4"/>
<feGaussianBlur stdDeviation="3"/>
<feColorMatrix type="matrix" values="0 0 0 0 0 0 0 0 0 0 0 0 0 0 0 0 0 0 0.1 0"/>
<feBlend mode="normal" in2="BackgroundImageFix" result="effect1_dropShadow"/>
<feBlend mode="normal" in="SourceGraphic" in2="effect1_dropShadow" result="shape"/>
</filter>
<linearGradient id="paint0_linear" x1="44.75" y1="45.125" x2="14.75" y2="13.25" gradientUnits="userSpaceOnUse">
<stop stop-color="#59C228"/>
<stop offset="1" stop-color="#9CEC36"/>
</linearGradient>
</defs>
</svg>
