<svg width="49" height="48" viewBox="0 0 49 48" fill="none" xmlns="http://www.w3.org/2000/svg">
<path d="M24.5 43.8632C35.4401 43.8632 44.3632 34.9743 44.3632 24C44.3632 13.0256 35.4401 4.13672 24.5 4.13672C13.5598 4.13672 4.63672 13.0598 4.63672 24C4.63672 34.9401 13.5598 43.8632 24.5 43.8632ZM24.5 6.94014C33.9017 6.94014 41.5598 14.5983 41.5598 24C41.5598 33.4017 33.9017 41.0598 24.5 41.0598C15.0983 41.0598 7.44014 33.4017 7.44014 24C7.44014 14.5983 15.0983 6.94014 24.5 6.94014Z" fill="#FB1818"/>
<path d="M17.047 31.2479C17.3205 31.5214 17.6624 31.6581 18.0384 31.6581C18.4145 31.6581 18.7564 31.5214 19.0299 31.2479L24.5 25.7778L29.97 31.2479C30.2436 31.5214 30.5854 31.6581 30.9615 31.6581C31.3376 31.6581 31.6795 31.5214 31.953 31.2479C32.5 30.7009 32.5 29.812 31.953 29.265L26.4829 23.7949L31.953 18.3248C32.5 17.7778 32.5 16.8889 31.953 16.3419C31.4059 15.7949 30.5171 15.7949 29.97 16.3419L24.5 21.812L19.0299 16.3419C18.4829 15.7949 17.594 15.7949 17.047 16.3419C16.5 16.8889 16.5 17.7778 17.047 18.3248L22.5171 23.7949L17.047 29.265C16.5 29.812 16.5 30.7009 17.047 31.2479Z" fill="#FB1818"/>
</svg>
