<svg width="48" height="48" viewBox="0 0 48 48" fill="none" xmlns="http://www.w3.org/2000/svg">
<path d="M24 43.8632C34.9401 43.8632 43.8632 34.9743 43.8632 24C43.8632 13.0256 34.9401 4.13672 24 4.13672C13.0598 4.13672 4.13672 13.0598 4.13672 24C4.13672 34.9401 13.0598 43.8632 24 43.8632ZM24 6.94014C33.4017 6.94014 41.0598 14.5983 41.0598 24C41.0598 33.4017 33.4017 41.0598 24 41.0598C14.5983 41.0598 6.94014 33.4017 6.94014 24C6.94014 14.5983 14.5983 6.94014 24 6.94014Z" fill="#FF5630"/>
<path d="M16.547 31.2478C16.8205 31.5213 17.1624 31.6581 17.5384 31.6581C17.9145 31.6581 18.2564 31.5213 18.5299 31.2478L24 25.7777L29.47 31.2478C29.7436 31.5213 30.0854 31.6581 30.4615 31.6581C30.8376 31.6581 31.1795 31.5213 31.453 31.2478C32 30.7008 32 29.8119 31.453 29.2649L25.9829 23.7948L31.453 18.3247C32 17.7777 32 16.8888 31.453 16.3418C30.9059 15.7948 30.0171 15.7948 29.47 16.3418L24 21.8119L18.5299 16.3418C17.9829 15.7948 17.094 15.7948 16.547 16.3418C16 16.8888 16 17.7777 16.547 18.3247L22.0171 23.7948L16.547 29.2649C16 29.8119 16 30.7008 16.547 31.2478Z" fill="#FF5630"/>
</svg>
