<svg width="62" height="62" viewBox="0 0 62 62" fill="none" xmlns="http://www.w3.org/2000/svg">
<g filter="url(#filter0_d)">
<rect x="6" y="2" width="50" height="50" rx="25" fill="url(#paint0_linear)"/>
</g>
<path d="M39.2019 40.25H23.0481C21.7092 40.25 20.4252 39.7182 19.4785 38.7715C18.5318 37.8248 18 36.5408 18 35.2019V21.0673C18 19.7285 18.5318 18.4445 19.4785 17.4978C20.4252 16.5511 21.7092 16.0192 23.0481 16.0192H39.2019C40.5408 16.0192 41.8248 16.5511 42.7715 17.4978C43.7182 18.4445 44.25 19.7285 44.25 21.0673V35.2019C44.25 36.5408 43.7182 37.8248 42.7715 38.7715C41.8248 39.7182 40.5408 40.25 39.2019 40.25ZM23.0481 18.0385C22.2448 18.0385 21.4744 18.3576 20.9064 18.9256C20.3383 19.4936 20.0192 20.264 20.0192 21.0673V35.2019C20.0192 36.0052 20.3383 36.7756 20.9064 37.3436C21.4744 37.9117 22.2448 38.2308 23.0481 38.2308H39.2019C40.0052 38.2308 40.7756 37.9117 41.3436 37.3436C41.9117 36.7756 42.2308 36.0052 42.2308 35.2019V21.0673C42.2308 20.264 41.9117 19.4936 41.3436 18.9256C40.7756 18.3576 40.0052 18.0385 39.2019 18.0385H23.0481Z" fill="white"/>
<path d="M39.2019 36.2115H35.1634C34.8957 36.2115 34.6389 36.1052 34.4495 35.9158C34.2602 35.7265 34.1538 35.4697 34.1538 35.2019V31.1635C34.1538 30.8957 34.2602 30.6389 34.4495 30.4496C34.6389 30.2602 34.8957 30.1538 35.1634 30.1538H39.2019C39.4697 30.1538 39.7265 30.2602 39.9158 30.4496C40.1051 30.6389 40.2115 30.8957 40.2115 31.1635V35.2019C40.2115 35.4697 40.1051 35.7265 39.9158 35.9158C39.7265 36.1052 39.4697 36.2115 39.2019 36.2115ZM36.173 34.1923H38.1923V32.1731H36.173V34.1923Z" fill="white"/>
<path d="M43.2404 24.0962H19.0096C18.7418 24.0962 18.485 23.9898 18.2957 23.8004C18.1064 23.6111 18 23.3543 18 23.0865C18 22.8188 18.1064 22.562 18.2957 22.3726C18.485 22.1833 18.7418 22.0769 19.0096 22.0769H43.2404C43.5082 22.0769 43.765 22.1833 43.9543 22.3726C44.1436 22.562 44.25 22.8188 44.25 23.0865C44.25 23.3543 44.1436 23.6111 43.9543 23.8004C43.765 23.9898 43.5082 24.0962 43.2404 24.0962Z" fill="white"/>
<path d="M26.0769 20.0577C25.8091 20.0577 25.5523 19.9513 25.363 19.762C25.1736 19.5726 25.0673 19.3158 25.0673 19.0481V15.0096C25.0673 14.7418 25.1736 14.485 25.363 14.2957C25.5523 14.1064 25.8091 14 26.0769 14C26.3446 14 26.6014 14.1064 26.7908 14.2957C26.9801 14.485 27.0865 14.7418 27.0865 15.0096V19.0481C27.0865 19.3158 26.9801 19.5726 26.7908 19.762C26.6014 19.9513 26.3446 20.0577 26.0769 20.0577Z" fill="white"/>
<path d="M36.1731 20.0577C35.9053 20.0577 35.6485 19.9513 35.4592 19.762C35.2698 19.5726 35.1635 19.3158 35.1635 19.0481V15.0096C35.1635 14.7418 35.2698 14.485 35.4592 14.2957C35.6485 14.1064 35.9053 14 36.1731 14C36.4408 14 36.6976 14.1064 36.887 14.2957C37.0763 14.485 37.1827 14.7418 37.1827 15.0096V19.0481C37.1827 19.3158 37.0763 19.5726 36.887 19.762C36.6976 19.9513 36.4408 20.0577 36.1731 20.0577Z" fill="white"/>
<defs>
<filter id="filter0_d" x="0" y="0" width="62" height="62" filterUnits="userSpaceOnUse" color-interpolation-filters="sRGB">
<feFlood flood-opacity="0" result="BackgroundImageFix"/>
<feColorMatrix in="SourceAlpha" type="matrix" values="0 0 0 0 0 0 0 0 0 0 0 0 0 0 0 0 0 0 127 0"/>
<feOffset dy="4"/>
<feGaussianBlur stdDeviation="3"/>
<feColorMatrix type="matrix" values="0 0 0 0 0 0 0 0 0 0 0 0 0 0 0 0 0 0 0.1 0"/>
<feBlend mode="normal" in2="BackgroundImageFix" result="effect1_dropShadow"/>
<feBlend mode="normal" in="SourceGraphic" in2="effect1_dropShadow" result="shape"/>
</filter>
<linearGradient id="paint0_linear" x1="44.75" y1="45.125" x2="14.75" y2="13.25" gradientUnits="userSpaceOnUse">
<stop stop-color="#59C228"/>
<stop offset="1" stop-color="#9CEC36"/>
</linearGradient>
</defs>
</svg>
