<svg width="20" height="20" viewBox="0 0 20 20" fill="none" xmlns="http://www.w3.org/2000/svg">
<path fill-rule="evenodd" clip-rule="evenodd" d="M2 2H16V9C16 9.55229 16.4477 10 17 10C17.5523 10 18 9.55229 18 9V2C18 0.895431 17.1046 0 16 0H2C0.895431 0 0 0.895431 0 2V18C0 19.1046 0.89543 20 2 20H9C9.55229 20 10 19.5523 10 19C10 18.4477 9.55229 18 9 18H2L2 2ZM4 5C4 4.44772 4.44772 4 5 4H13C13.5523 4 14 4.44772 14 5C14 5.55228 13.5523 6 13 6H5C4.44772 6 4 5.55228 4 5ZM4 9C4 8.44771 4.44772 8 5 8H13C13.5523 8 14 8.44771 14 9C14 9.55229 13.5523 10 13 10H5C4.44772 10 4 9.55229 4 9ZM5 12C4.44772 12 4 12.4477 4 13C4 13.5523 4.44772 14 5 14H9C9.55228 14 10 13.5523 10 13C10 12.4477 9.55228 12 9 12H5ZM19.432 11.932C19.0414 11.5414 18.4083 11.5414 18.0177 11.932L12.557 17.3927C12.1664 17.7833 12.1664 18.4164 12.557 18.807C12.9475 19.1975 13.5807 19.1975 13.9712 18.807L19.432 13.3462C19.8225 12.9556 19.8225 12.3225 19.432 11.932Z" fill="url(#paint0_linear)"/>
<defs>
<linearGradient id="paint0_linear" x1="7.70592" y1="17.5" x2="7.70592" y2="2.33333" gradientUnits="userSpaceOnUse">
<stop stop-color="#53B824"/>
<stop offset="1" stop-color="#81D219"/>
</linearGradient>
</defs>
</svg>
