<svg width="20" height="20" viewBox="0 0 20 20" fill="none" xmlns="http://www.w3.org/2000/svg">
<path fill-rule="evenodd" clip-rule="evenodd" d="M10.2504 19C10.1435 19.0001 10.0378 18.9773 9.94035 18.9332C9.84294 18.8891 9.75609 18.8247 9.68562 18.7443L7.28551 16H4.25011C3.65334 16 3.08102 15.7629 2.65904 15.341C2.23706 14.919 2 14.3467 2 13.75V4.25C2 3.65326 2.23706 3.08097 2.65904 2.65901C3.08102 2.23705 3.65334 2 4.25011 2H16.2507C16.8475 2 17.4198 2.23705 17.8418 2.65901C18.2637 3.08097 18.5008 3.65326 18.5008 4.25V13.75C18.5008 14.3467 18.2637 14.919 17.8418 15.341C17.4198 15.7629 16.8475 16 16.2507 16H13.216L10.8152 18.7443C10.7447 18.8247 10.6579 18.8891 10.5605 18.9332C10.463 18.9773 10.3573 19.0001 10.2504 19ZM10.2504 17.1108L12.3108 14.7557C12.3812 14.6753 12.4681 14.6109 12.5655 14.5668C12.6629 14.5227 12.7686 14.4999 12.8755 14.5H16.2507C16.4496 14.5 16.6404 14.421 16.781 14.2803C16.9217 14.1397 17.0007 13.9489 17.0007 13.75V4.25C17.0007 4.05109 16.9217 3.86032 16.781 3.71967C16.6404 3.57902 16.4496 3.5 16.2507 3.5H4.25011C4.05119 3.5 3.86041 3.57902 3.71975 3.71967C3.57909 3.86032 3.50007 4.05109 3.50007 4.25V13.75C3.50007 13.9489 3.57909 14.1397 3.71975 14.2803C3.86041 14.421 4.05119 14.5 4.25011 14.5H7.62527C7.7322 14.4999 7.83792 14.5227 7.93533 14.5668C8.03273 14.6109 8.11958 14.6753 8.19005 14.7557L10.2504 17.1108Z" fill="#CCCCCC"/>
</svg>
