<svg width="62" height="62" viewBox="0 0 62 62" fill="none" xmlns="http://www.w3.org/2000/svg">
<g filter="url(#filter0_d)">
<rect x="6" y="2" width="50" height="50" rx="25" fill="url(#paint0_linear)"/>
</g>
<path d="M18.9983 40C18.8276 39.9995 18.6599 39.9553 18.511 39.8718C18.3622 39.7882 18.2372 39.668 18.1479 39.5225C18.0586 39.377 18.008 39.2112 18.0009 39.0406C17.9937 38.8701 18.0303 38.7006 18.1071 38.5481L22.1122 30.5379C22.1815 30.3946 22.284 30.2699 22.4111 30.1741C22.5382 30.0783 22.6863 30.0143 22.8432 29.9872C23.0002 29.9613 23.1611 29.9732 23.3126 30.022C23.4641 30.0708 23.6018 30.1549 23.7143 30.2675L27.7194 34.2727C27.832 34.3851 27.9162 34.5228 27.965 34.6743C28.0137 34.8258 28.0257 34.9867 27.9998 35.1438C27.9737 35.2996 27.9112 35.4471 27.8172 35.5741C27.7232 35.7012 27.6005 35.8042 27.4591 35.8747L19.4488 39.8798C19.3116 39.9583 19.1563 39.9997 18.9983 40ZM23.2737 32.6806L21.2712 36.7558L25.3464 34.7533L23.2737 32.6806Z" fill="white"/>
<path d="M27.0086 35.9949C26.8768 35.9956 26.7462 35.9704 26.6242 35.9205C26.5022 35.8707 26.3912 35.7973 26.2977 35.7045L22.2925 31.6994C22.1987 31.6063 22.1242 31.4955 22.0733 31.3735C22.0225 31.2515 21.9963 31.1206 21.9963 30.9884C21.9963 30.8563 22.0225 30.7254 22.0733 30.6034C22.1242 30.4814 22.1987 30.3706 22.2925 30.2775L37.6122 14.9679C38.2639 14.3466 39.1298 14 40.0303 14C40.9307 14 41.7966 14.3466 42.4484 14.9679L43.0291 15.5487C43.6699 16.1923 44.0296 17.0635 44.0296 17.9718C44.0296 18.88 43.6699 19.7512 43.0291 20.3949L27.7195 35.7045C27.6259 35.7973 27.515 35.8707 27.393 35.9205C27.271 35.9704 27.1403 35.9956 27.0086 35.9949ZM24.4152 30.9884L27.0086 33.5818L41.6173 18.973C41.7493 18.8418 41.854 18.6858 41.9255 18.514C41.997 18.3421 42.0338 18.1579 42.0338 17.9718C42.0338 17.7856 41.997 17.6014 41.9255 17.4295C41.854 17.2577 41.7493 17.1017 41.6173 16.9705L41.0265 16.3897C40.7578 16.1303 40.3988 15.9854 40.0252 15.9854C39.6517 15.9854 39.2927 16.1303 39.024 16.3897L24.4152 30.9884Z" fill="white"/>
<path d="M40.0251 22.9782C39.8933 22.9789 39.7627 22.9537 39.6407 22.9039C39.5187 22.854 39.4078 22.7806 39.3142 22.6878L33.727 17.0906C33.634 16.9968 33.5232 16.9223 33.4012 16.8715C33.2792 16.8206 33.1483 16.7945 33.0161 16.7945C32.884 16.7945 32.7531 16.8206 32.6311 16.8715C32.509 16.9223 32.3983 16.9968 32.3052 17.0906L27.7193 21.6865C27.5308 21.8751 27.2751 21.981 27.0084 21.981C26.7418 21.981 26.4861 21.8751 26.2975 21.6865C26.109 21.498 26.0031 21.2423 26.0031 20.9756C26.0031 20.709 26.109 20.4532 26.2975 20.2647L30.8934 15.6788C31.4641 15.1305 32.2248 14.8244 33.0161 14.8244C33.8075 14.8244 34.5682 15.1305 35.1389 15.6788L40.736 21.266C40.8299 21.3591 40.9044 21.4698 40.9552 21.5918C41.006 21.7138 41.0322 21.8447 41.0322 21.9769C41.0322 22.1091 41.006 22.2399 40.9552 22.362C40.9044 22.484 40.8299 22.5947 40.736 22.6878C40.6425 22.7806 40.5315 22.854 40.4095 22.9039C40.2875 22.9537 40.1569 22.9789 40.0251 22.9782Z" fill="white"/>
<defs>
<filter id="filter0_d" x="0" y="0" width="62" height="62" filterUnits="userSpaceOnUse" color-interpolation-filters="sRGB">
<feFlood flood-opacity="0" result="BackgroundImageFix"/>
<feColorMatrix in="SourceAlpha" type="matrix" values="0 0 0 0 0 0 0 0 0 0 0 0 0 0 0 0 0 0 127 0"/>
<feOffset dy="4"/>
<feGaussianBlur stdDeviation="3"/>
<feColorMatrix type="matrix" values="0 0 0 0 0 0 0 0 0 0 0 0 0 0 0 0 0 0 0.1 0"/>
<feBlend mode="normal" in2="BackgroundImageFix" result="effect1_dropShadow"/>
<feBlend mode="normal" in="SourceGraphic" in2="effect1_dropShadow" result="shape"/>
</filter>
<linearGradient id="paint0_linear" x1="44.75" y1="45.125" x2="14.75" y2="13.25" gradientUnits="userSpaceOnUse">
<stop stop-color="#14C8BD"/>
<stop offset="1" stop-color="#0CF9C0"/>
</linearGradient>
</defs>
</svg>
