<svg width="18" height="18" viewBox="0 0 18 18" fill="none" xmlns="http://www.w3.org/2000/svg">
<path d="M5.84662 2.00003C6.06512 1.99813 6.27564 2.08213 6.43281 2.23393L12.0324 8.13451C12.1887 8.29079 12.2764 8.50271 12.2764 8.72368C12.2764 8.94465 12.1887 9.15657 12.0324 9.31285L6.43281 15.1783C6.35594 15.2579 6.26398 15.3214 6.1623 15.3651C6.06063 15.4088 5.95127 15.4317 5.84062 15.4327C5.72996 15.4337 5.62022 15.4126 5.5178 15.3707C5.41539 15.3288 5.32234 15.2669 5.24409 15.1887C5.16584 15.1104 5.10396 15.0174 5.06206 14.915C5.02016 14.8125 4.99907 14.7028 5.00003 14.5922C5.00099 14.4815 5.02398 14.3722 5.06766 14.2705C5.11134 14.1688 5.17482 14.0769 5.25442 14L10.2649 8.72368L5.25442 3.41226C5.10261 3.25509 5.01861 3.04459 5.02051 2.82609C5.02241 2.60759 5.11006 2.39858 5.26457 2.24408C5.41909 2.08957 5.62811 2.00193 5.84662 2.00003Z" fill="black"/>
</svg>
