<svg width="24" height="24" viewBox="0 0 24 24" fill="none" xmlns="http://www.w3.org/2000/svg">
<path fill-rule="evenodd" clip-rule="evenodd" d="M13.4999 1.37988H13.1999C12.6706 1.38029 12.1566 1.55787 11.7399 1.88431C11.325 2.20942 11.0303 2.66354 10.9025 3.1748L9.40439 7.29448C9.31859 7.53442 9.16206 7.74272 8.95545 7.89187C8.7492 8.04075 8.50273 8.12372 8.24846 8.12988H2.12988V21.8699H17.9999C19.0263 21.8699 20.0106 21.4622 20.7364 20.7364C21.4622 20.0106 21.8699 19.0263 21.8699 17.9999V11.9999C21.8699 10.9735 21.4622 9.98915 20.7364 9.26338C20.0106 8.53761 19.0263 8.12988 17.9999 8.12988H15.8699V3.74988C15.8699 3.12132 15.6202 2.5185 15.1757 2.07404C14.7313 1.62958 14.1284 1.37988 13.4999 1.37988ZM12.8016 3.2529C12.9165 3.16331 13.0588 3.11629 13.2045 3.11985L13.4999 3.11988C13.667 3.11988 13.8272 3.18626 13.9454 3.30441C14.0635 3.42255 14.1299 3.5828 14.1299 3.74988V9.86988H17.9999C18.5648 9.86988 19.1066 10.0943 19.506 10.4937C19.9055 10.8932 20.1299 11.435 20.1299 11.9999V17.9999C20.1299 18.5648 19.9055 19.1066 19.506 19.506C19.1066 19.9055 18.5648 20.1299 17.9999 20.1299H8.36988V9.86748C8.94603 9.8444 9.50421 9.65526 9.97657 9.3216C10.4816 8.96486 10.8638 8.46024 11.0705 7.87749L12.5774 3.69584V3.59882C12.6112 3.46175 12.6901 3.33988 12.8016 3.2529ZM3.86988 20.1299V9.86988H6.62988V20.1299H3.86988Z" fill="#CCCCCC"/>
</svg>
