<svg width="16" height="16" viewBox="0 0 16 16" fill="none" xmlns="http://www.w3.org/2000/svg">
<path fill-rule="evenodd" clip-rule="evenodd" d="M6.33333 2.16666C5.22826 2.16666 4.16846 2.60564 3.38706 3.38705C2.60565 4.16845 2.16667 5.22826 2.16667 6.33332C2.16667 7.43839 2.60565 8.4982 3.38706 9.2796C4.16846 10.061 5.22826 10.5 6.33333 10.5C7.4384 10.5 8.49821 10.061 9.27961 9.2796C10.061 8.4982 10.5 7.43839 10.5 6.33332C10.5 5.22826 10.061 4.16845 9.27961 3.38705C8.49821 2.60564 7.4384 2.16666 6.33333 2.16666ZM0.5 6.33332C0.500002 5.40937 0.719479 4.49864 1.14036 3.67612C1.56124 2.85359 2.17148 2.14281 2.92084 1.6023C3.67019 1.06179 4.53722 0.707017 5.45053 0.567188C6.36384 0.42736 7.2973 0.50648 8.17404 0.798032C9.05079 1.08958 9.84574 1.58523 10.4934 2.24415C11.1411 2.90308 11.623 3.70643 11.8995 4.58806C12.1759 5.46968 12.239 6.40436 12.0835 7.31513C11.9279 8.2259 11.5583 9.08671 11.005 9.82666L15.2558 14.0767C15.4122 14.2329 15.5001 14.4449 15.5002 14.6659C15.5002 14.887 15.4125 15.099 15.2563 15.2554C15.1 15.4118 14.888 15.4997 14.667 15.4997C14.4459 15.4998 14.2339 15.4121 14.0775 15.2558L9.8275 11.0058C8.96043 11.6544 7.92994 12.0489 6.85139 12.1451C5.77284 12.2412 4.68882 12.0353 3.72067 11.5503C2.75253 11.0653 1.93848 10.3205 1.36967 9.39907C0.800855 8.47768 0.499728 7.41615 0.5 6.33332Z" fill="#8C8C8C"/>
</svg>
