<svg width="28" height="28" viewBox="0 0 28 28" fill="none" xmlns="http://www.w3.org/2000/svg">
<rect x="6.90039" y="2.34375" width="1.8" height="5" rx="0.9" fill="#999999"/>
<rect x="19.2754" y="2.34375" width="1.8" height="5" rx="0.9" fill="#999999"/>
<path fill-rule="evenodd" clip-rule="evenodd" d="M10.0001 4.4375H17.9751V6.2375H10.0001V4.4375ZM23 6.2375H22.3751V4.4375H23C24.6569 4.4375 26 5.78065 26 7.4375V22C26 23.6569 24.6569 25 23 25H5C3.34315 25 2 23.6569 2 22V7.4375C2 5.78065 3.34315 4.4375 5 4.4375H5.6001V6.2375H5C4.33726 6.2375 3.8 6.77476 3.8 7.4375V9.9187H24.2V7.4375C24.2 6.77476 23.6627 6.2375 23 6.2375ZM24.2 11.7187H3.8V22C3.8 22.6627 4.33726 23.2 5 23.2H23C23.6627 23.2 24.2 22.6627 24.2 22V11.7187Z" fill="#999999"/>
</svg>
