<svg width="48" height="48" viewBox="0 0 48 48" fill="none" xmlns="http://www.w3.org/2000/svg">
<path d="M15.7948 22.8377C15.2478 22.2907 14.3589 22.2907 13.8119 22.8377C13.2649 23.3847 13.2649 24.2736 13.8119 24.8206L20.2734 31.2821C20.5469 31.5556 20.8888 31.6924 21.2649 31.6924C21.299 31.6924 21.299 31.6924 21.3332 31.6924C21.7093 31.6582 22.0854 31.4872 22.3589 31.1795L38.5298 11.7949C39.0084 11.2137 38.9401 10.3248 38.3589 9.81202C37.7777 9.33339 36.8888 9.40176 36.376 9.98296L21.1623 28.2052L15.7948 22.8377Z" fill="#2DB553"/>
<path d="M34.4615 7.17953C26.5983 2.25646 16.5128 3.41885 9.94868 9.98295C2.22218 17.7094 2.22218 30.3248 9.94868 38.0513C13.8119 41.9146 18.9059 43.8633 23.9658 43.8633C29.0256 43.8633 34.1196 41.9146 37.9829 38.0513C44.5812 31.453 45.7094 21.3334 40.7521 13.4701C40.3418 12.8206 39.4871 12.6154 38.8376 13.0257C38.188 13.4359 37.9829 14.2906 38.3931 14.9402C42.6666 21.7094 41.6752 30.3932 36 36.0684C29.3675 42.7009 18.5299 42.7009 11.8974 36.0684C5.26492 29.4359 5.26492 18.5983 11.8974 11.9659C17.5726 6.32483 26.2222 5.33338 32.9914 9.53851C33.641 9.94877 34.4957 9.74364 34.9059 9.09406C35.3162 8.44449 35.1111 7.58979 34.4615 7.17953Z" fill="#2DB553"/>
</svg>
