<svg width="62" height="62" viewBox="0 0 62 62" fill="none" xmlns="http://www.w3.org/2000/svg">
<g filter="url(#filter0_d)">
<rect x="6" y="2" width="50" height="50" rx="25" fill="url(#paint0_linear)"/>
</g>
<path d="M45.0467 26.1705C45.4734 25.7337 45.7725 25.1883 45.9118 24.5935C46.051 23.9987 46.025 23.377 45.8367 22.7959C45.663 22.2182 45.3298 21.7014 44.8756 21.305C44.4214 20.9085 43.8647 20.6486 43.2694 20.555L37.4238 19.685C37.3214 19.6701 37.2243 19.6297 37.1415 19.5675C37.0587 19.5054 36.9928 19.4234 36.9499 19.3291L34.3167 13.8323C34.069 13.2936 33.6743 12.8358 33.1782 12.5116C32.6821 12.1875 32.1047 12.0102 31.5124 12C30.909 11.9981 30.3179 12.1714 29.8109 12.4989C29.3038 12.8265 28.9025 13.2942 28.6555 13.8455L26.0224 19.3555C25.9804 19.4505 25.9148 19.5331 25.8318 19.5954C25.7488 19.6577 25.6512 19.6977 25.5484 19.7114L19.716 20.6209C19.1214 20.7123 18.5652 20.9716 18.1127 21.3686C17.6602 21.7656 17.3304 22.2836 17.1619 22.8618C16.9737 23.4439 16.9491 24.0667 17.0907 24.6619C17.2324 25.2571 17.5348 25.8018 17.965 26.2364L22.2965 30.5205C22.3704 30.5932 22.4258 30.6826 22.4579 30.7813C22.4899 30.88 22.4978 30.9849 22.4808 31.0873L21.4934 37.1509C21.3963 37.7564 21.4678 38.377 21.7 38.9444C21.9323 39.5118 22.3164 40.0042 22.8099 40.3673C23.3379 40.7757 23.9859 40.9982 24.6531 41C25.1729 40.997 25.6839 40.8657 26.1409 40.6177L31.4071 37.7441C31.4972 37.692 31.5993 37.6646 31.7033 37.6646C31.8073 37.6646 31.9095 37.692 31.9996 37.7441L37.2658 40.5914C37.7871 40.8745 38.3791 41.0002 38.9703 40.9535C39.5615 40.9067 40.1264 40.6893 40.5968 40.3277C41.0903 39.9615 41.474 39.4668 41.7062 38.8973C41.9383 38.3279 42.01 37.7056 41.9133 37.0982L40.8996 31.0477C40.8809 30.9444 40.8866 30.8381 40.9163 30.7374C40.946 30.6367 40.9989 30.5443 41.0707 30.4677L45.0467 26.1705ZM39.0432 28.5827C38.6686 28.9602 38.3877 29.4204 38.223 29.9264C38.0584 30.4324 38.0146 30.9699 38.0953 31.4959L39.109 37.5595C39.1333 37.6767 39.1239 37.7983 39.082 37.9102C39.04 38.0222 38.9672 38.12 38.872 38.1923C38.774 38.2558 38.6597 38.2896 38.5429 38.2896C38.4261 38.2896 38.3118 38.2558 38.2138 38.1923L32.9475 35.345C32.4951 35.0981 31.9882 34.9687 31.4729 34.9687C30.9577 34.9687 30.4508 35.0981 29.9984 35.345L24.7321 38.2186C24.6341 38.2822 24.5198 38.316 24.403 38.316C24.2862 38.316 24.1719 38.2822 24.0738 38.2186C23.975 38.1491 23.8987 38.0522 23.8542 37.9397C23.8098 37.8273 23.7992 37.7043 23.8237 37.5859L24.9296 31.5355C25.0153 31.0126 24.9778 30.4769 24.8201 29.9711C24.6624 29.4653 24.3888 29.0034 24.0212 28.6223L19.7687 24.3382C19.6928 24.2483 19.643 24.1395 19.6244 24.0233C19.6058 23.9072 19.6193 23.7881 19.6634 23.6791C19.6972 23.5631 19.7636 23.4592 19.8546 23.3798C19.9456 23.3004 20.0574 23.2487 20.1768 23.2309L26.0092 22.3346C26.5126 22.2438 26.9864 22.032 27.39 21.7175C27.7936 21.4029 28.1149 20.995 28.3264 20.5286L30.9595 15.0055C31.0057 14.8967 31.0826 14.8038 31.1809 14.7382C31.2791 14.6726 31.3944 14.6372 31.5124 14.6364C31.6313 14.6335 31.7483 14.6658 31.849 14.729C31.9497 14.7923 32.0295 14.8839 32.0786 14.9923L34.7117 20.5023C34.9338 20.9723 35.2668 21.3811 35.6819 21.6935C36.0971 22.0058 36.582 22.2123 37.0947 22.295L42.9402 23.165C43.0574 23.1794 43.1677 23.2284 43.2568 23.3059C43.3459 23.3834 43.4099 23.4858 43.4405 23.6C43.4821 23.7153 43.4893 23.8403 43.4612 23.9596C43.4332 24.079 43.3711 24.1876 43.2825 24.2723L39.0432 28.5827Z" fill="white"/>
<defs>
<filter id="filter0_d" x="0" y="0" width="62" height="62" filterUnits="userSpaceOnUse" color-interpolation-filters="sRGB">
<feFlood flood-opacity="0" result="BackgroundImageFix"/>
<feColorMatrix in="SourceAlpha" type="matrix" values="0 0 0 0 0 0 0 0 0 0 0 0 0 0 0 0 0 0 127 0"/>
<feOffset dy="4"/>
<feGaussianBlur stdDeviation="3"/>
<feColorMatrix type="matrix" values="0 0 0 0 0 0 0 0 0 0 0 0 0 0 0 0 0 0 0.1 0"/>
<feBlend mode="normal" in2="BackgroundImageFix" result="effect1_dropShadow"/>
<feBlend mode="normal" in="SourceGraphic" in2="effect1_dropShadow" result="shape"/>
</filter>
<linearGradient id="paint0_linear" x1="44.75" y1="45.125" x2="14.75" y2="13.25" gradientUnits="userSpaceOnUse">
<stop stop-color="#F1500B"/>
<stop offset="1" stop-color="#FF9A3D"/>
</linearGradient>
</defs>
</svg>
