<svg width="45" height="45" viewBox="0 0 45 45" fill="none" xmlns="http://www.w3.org/2000/svg">
<path d="M22.75 12.8125C24.9062 12.8125 26.6562 11.0625 26.6562 8.90625C26.6562 6.75 24.9062 5 22.75 5C20.5938 5 18.8438 6.75 18.8438 8.90625C18.8438 11.0469 20.5938 12.8125 22.75 12.8125ZM22.75 6.59375C24.0156 6.59375 25.0625 7.625 25.0625 8.90625C25.0625 10.1719 24.0312 11.2188 22.75 11.2188C21.4844 11.2188 20.4375 10.1875 20.4375 8.90625C20.4531 7.625 21.4844 6.59375 22.75 6.59375Z" fill="url(#paint0_linear)"/>
<path d="M14.25 27.9844C13.9219 28.0625 13.6719 28.3594 13.6563 28.7031L13.0625 37.8438C13.0469 38.2031 12.75 38.4688 12.3906 38.4688H7.85938C7.5 38.4688 7.20312 38.1875 7.1875 37.8438L6.57812 28.7188C6.5625 28.3906 6.32812 28.1094 6.01562 28.0156C5.84375 27.9688 5.34375 27.8125 5.26562 27.7188C5.20312 27.625 5.17188 27.1094 5.15625 26.8438L4.60937 17.1719C5.39062 16.9375 6.67187 16.5313 7.34375 16.3125L9.57813 18.4063C9.89063 18.6875 10.3594 18.6875 10.6719 18.4063L12.9062 16.3125C13.125 16.375 13.3906 16.4688 13.6875 16.5625C14.1094 16.7031 14.5625 16.4688 14.6875 16.0469C14.8281 15.625 14.5938 15.1719 14.1719 15.0469C13.5 14.8281 12.9531 14.6563 12.9531 14.6563C12.6719 14.5625 12.375 14.6406 12.1562 14.8281L10.125 16.7344L8.09375 14.8281C7.875 14.625 7.57812 14.5625 7.29688 14.6563C7.29688 14.6563 5.15625 15.3438 4.07812 15.6719C3.40625 15.875 3 16.4063 3 17.1094C3 17.1563 3 17.2813 3 17.2813L3.53125 26.8125C3.53125 26.8125 3.53125 26.9531 3.54688 26.9844C3.64062 28.3906 3.84375 28.9063 5.01562 29.3594L5.57812 37.9531C5.65625 39.1406 6.65625 40.0781 7.84375 40.0781H12.375C13.5625 40.0781 14.5625 39.1406 14.6406 37.9531L15.2188 29.0469C15.2813 28.8906 15.2813 28.7031 15.2344 28.5313C15.125 28.1094 14.6719 27.875 14.25 27.9844Z" fill="url(#paint1_linear)"/>
<path d="M10.1094 13.3594C12.2656 13.3594 14.0156 11.6094 14.0156 9.45313C14.0156 7.29688 12.2656 5.54688 10.1094 5.54688C7.95312 5.54688 6.20312 7.29688 6.20312 9.45313C6.20312 11.6094 7.96875 13.3594 10.1094 13.3594ZM10.1094 7.15625C11.375 7.15625 12.4219 8.1875 12.4219 9.46875C12.4219 10.75 11.3906 11.7813 10.1094 11.7813C8.84375 11.7813 7.79688 10.75 7.79688 9.46875C7.79688 8.1875 8.84375 7.15625 10.1094 7.15625Z" fill="url(#paint2_linear)"/>
<path d="M28.7969 15.6406C27.7187 15.3125 25.5781 14.625 25.5781 14.625C25.2969 14.5313 25 14.6094 24.7812 14.7969L22.75 16.7031L20.7188 14.7969C20.5 14.5938 20.2031 14.5313 19.9219 14.625C19.9219 14.625 17.7813 15.3125 16.7031 15.6406C16.0156 15.8438 15.625 16.375 15.625 17.0781L16.1563 26.8125L16.1719 26.9688C16.2656 28.375 16.4688 28.9063 17.6406 29.3438L18.2031 37.9375C18.2812 39.125 19.2812 40.0625 20.4688 40.0625H25.0156C26.2031 40.0625 27.2031 39.125 27.2812 37.9375L27.8438 29.3438C29.0156 28.8906 29.2188 28.3594 29.3125 26.9688L29.8594 17.2188V17.0781C29.875 16.3594 29.4844 15.8438 28.7969 15.6406ZM27.7344 26.6875L27.7188 26.8438C27.7031 27.0938 27.6719 27.5938 27.6094 27.6875C27.5313 27.7813 27.0156 27.9375 26.8437 27.9844C26.5312 28.0781 26.2969 28.3594 26.2813 28.7031L25.6875 37.8281C25.6719 38.1875 25.375 38.4531 25.0156 38.4531H20.4688C20.1094 38.4531 19.8281 38.1719 19.7969 37.8281L19.2031 28.7031C19.1875 28.375 18.9531 28.0938 18.6406 27.9844C18.4687 27.9375 17.9688 27.7813 17.8906 27.6875C17.8281 27.5938 17.7969 27.0781 17.7812 26.8438L17.2344 17.1719V17.125C18.0156 16.8906 19.2969 16.4844 19.9687 16.2656L22.2031 18.3594C22.5156 18.6406 22.9844 18.6406 23.2969 18.3594L25.5312 16.2813C26.2031 16.5 27.4844 16.9063 28.2656 17.1406L27.7344 26.6875Z" fill="url(#paint3_linear)"/>
<path d="M41.4375 15.6406C40.3594 15.3125 38.2187 14.625 38.2187 14.625C37.9375 14.5313 37.6406 14.6094 37.4219 14.7969L35.3906 16.7031L33.3594 14.7969C33.1406 14.5938 32.8437 14.5313 32.5625 14.625C32.5625 14.625 32.0156 14.7969 31.3437 15.0156C30.9219 15.1563 30.6875 15.5938 30.8281 16.0156C30.9687 16.4375 31.4063 16.6719 31.8281 16.5313C32.125 16.4375 32.3906 16.3438 32.6094 16.2813L34.8437 18.375C35.1562 18.6563 35.625 18.6563 35.9375 18.375L38.1719 16.2813C38.8437 16.5 40.1094 16.8906 40.9062 17.1406L40.375 26.6875L40.3594 26.8438C40.3437 27.0938 40.3125 27.5938 40.25 27.6875C40.1719 27.7813 39.6562 27.9375 39.4844 27.9844C39.1719 28.0781 38.9375 28.3594 38.9219 28.7031L38.3281 37.8281C38.2969 38.1875 38 38.4531 37.6562 38.4531H33.1094C32.7656 38.4531 32.4687 38.1719 32.4375 37.8281L31.8281 28.7031C31.8125 28.375 31.5469 28.0938 31.2344 27.9844C30.8125 27.8438 30.3906 28.0781 30.25 28.5C30.2031 28.6563 30.2031 28.8281 30.25 28.9688L30.8438 37.9375C30.9219 39.125 31.9062 40.0625 33.1094 40.0625H37.6562C38.8437 40.0625 39.8437 39.125 39.9219 37.9375L40.4844 29.3438C41.6562 28.8906 41.8594 28.375 41.9531 26.9844C41.9531 26.9219 41.9687 26.7813 41.9687 26.7813L42.5 17.2031V17.0625C42.5 16.375 42.1094 15.8438 41.4375 15.6406Z" fill="url(#paint4_linear)"/>
<path d="M35.3906 13.3594C37.5469 13.3594 39.2969 11.6094 39.2969 9.45313C39.2969 7.29688 37.5469 5.54688 35.3906 5.54688C33.2344 5.54688 31.4844 7.29688 31.4844 9.45313C31.4844 11.6094 33.2344 13.3594 35.3906 13.3594ZM35.3906 7.15625C36.6562 7.15625 37.7031 8.1875 37.7031 9.46875C37.7031 10.75 36.6719 11.7813 35.3906 11.7813C34.125 11.7813 33.0781 10.75 33.0781 9.46875C33.0781 8.1875 34.1094 7.15625 35.3906 7.15625Z" fill="url(#paint5_linear)"/>
<defs>
<linearGradient id="paint0_linear" x1="22.75" y1="5" x2="22.75" y2="12.8125" gradientUnits="userSpaceOnUse">
<stop stop-color="#FF881A"/>
<stop offset="1" stop-color="#F36A1C"/>
</linearGradient>
<linearGradient id="paint1_linear" x1="9.13389" y1="14.6136" x2="9.13389" y2="40.0781" gradientUnits="userSpaceOnUse">
<stop stop-color="#FF881A"/>
<stop offset="1" stop-color="#F36A1C"/>
</linearGradient>
<linearGradient id="paint2_linear" x1="10.1094" y1="5.54687" x2="10.1094" y2="13.3594" gradientUnits="userSpaceOnUse">
<stop stop-color="#FF881A"/>
<stop offset="1" stop-color="#F36A1C"/>
</linearGradient>
<linearGradient id="paint3_linear" x1="22.7424" y1="14.5824" x2="22.7424" y2="40.0625" gradientUnits="userSpaceOnUse">
<stop stop-color="#FF881A"/>
<stop offset="1" stop-color="#F36A1C"/>
</linearGradient>
<linearGradient id="paint4_linear" x1="36.3574" y1="14.5824" x2="36.3574" y2="40.0625" gradientUnits="userSpaceOnUse">
<stop stop-color="#FF881A"/>
<stop offset="1" stop-color="#F36A1C"/>
</linearGradient>
<linearGradient id="paint5_linear" x1="35.3906" y1="5.54687" x2="35.3906" y2="13.3594" gradientUnits="userSpaceOnUse">
<stop stop-color="#FF881A"/>
<stop offset="1" stop-color="#F36A1C"/>
</linearGradient>
</defs>
</svg>
