<svg width="48" height="48" viewBox="0 0 48 48" fill="none" xmlns="http://www.w3.org/2000/svg">
<path d="M28.1163 20.6739C30.3997 20.6739 32.2507 18.8229 32.2507 16.5395C32.2507 14.2562 30.3997 12.4052 28.1163 12.4052C25.833 12.4052 23.9819 14.2562 23.9819 16.5395C23.9819 18.8229 25.833 20.6739 28.1163 20.6739Z" fill="#999999"/>
<path d="M4.13699 43.1029C4.13699 43.1029 4.13699 43.1373 4.13699 43.1029C4.13699 43.1373 4.13699 43.1373 4.17145 43.1373C4.2059 43.2062 4.24035 43.3096 4.2748 43.3785C4.2748 43.4129 4.30926 43.4129 4.30926 43.4474C4.30926 43.4818 4.34371 43.4818 4.34371 43.5163L4.37816 43.5507C4.41262 43.6197 4.48152 43.6541 4.51598 43.723L4.55043 43.7575C4.58488 43.7919 4.58488 43.7919 4.61933 43.8264C4.65379 43.8264 4.65379 43.8608 4.65379 43.8608C4.68824 43.8953 4.72269 43.8953 4.75715 43.9297L4.7916 43.9642C4.7916 43.9642 4.82605 43.9642 4.82605 43.9986C4.86051 44.0331 4.92941 44.0331 4.96387 44.0675C4.99832 44.0675 4.99832 44.0675 5.03277 44.102C5.06722 44.102 5.10168 44.1364 5.10168 44.1364C5.20504 44.1709 5.3084 44.1709 5.41176 44.1709H42.69C43.4824 44.1709 44.1025 43.5507 44.1025 42.7583V33.456V5.58347C44.1025 4.79105 43.4824 4.1709 42.69 4.1709H5.51511C4.72269 4.1709 4.10254 4.79105 4.10254 5.58347V33.3871V42.6894C4.10254 42.7928 4.13699 42.9306 4.13699 43.034C4.13699 43.0684 4.13699 43.1029 4.13699 43.1029ZM41.3807 41.3113H10.2352L33.2498 26.2553L41.3807 34.0072V41.3113ZM6.92769 6.99605H41.3807V30.1141L34.3868 23.4302C33.9044 22.9823 33.1809 22.9134 32.6297 23.2579L26.0491 27.599L21.4669 22.9823C20.9845 22.4999 20.261 22.431 19.7098 22.7756L6.92769 30.8376V6.99605ZM6.92769 34.1795L20.261 25.773L23.6374 29.1838L6.92769 40.1054V34.1795Z" fill="#999999"/>
</svg>
