<svg width="20" height="20" viewBox="0 0 20 20" fill="none" xmlns="http://www.w3.org/2000/svg">
<path fill-rule="evenodd" clip-rule="evenodd" d="M11.2499 1.15002H10.9999C10.5588 1.15037 10.1305 1.29835 9.78328 1.57038C9.43749 1.8413 9.19194 2.21974 9.08538 2.64579L7.83699 6.07886C7.76549 6.27881 7.63505 6.45239 7.46287 6.57668C7.291 6.70075 7.08561 6.76989 6.87372 6.77502H1.7749V18.225H14.9999C15.8552 18.225 16.6755 17.8852 17.2803 17.2804C17.8851 16.6756 18.2249 15.8553 18.2249 15V10C18.2249 9.1447 17.8851 8.32441 17.2803 7.7196C16.6755 7.1148 15.8552 6.77502 14.9999 6.77502H13.2249V3.12502C13.2249 2.60122 13.0168 2.09887 12.6464 1.72849C12.2761 1.3581 11.7737 1.15002 11.2499 1.15002ZM10.668 2.71087C10.7637 2.63621 10.8823 2.59703 11.0037 2.59999L11.2499 2.60002C11.3891 2.60002 11.5227 2.65534 11.6211 2.75379C11.7196 2.85225 11.7749 2.98579 11.7749 3.12502V8.22502H14.9999C15.4707 8.22502 15.9221 8.41203 16.255 8.74491C16.5879 9.07779 16.7749 9.52927 16.7749 10V15C16.7749 15.4708 16.5879 15.9223 16.255 16.2551C15.9221 16.588 15.4707 16.775 14.9999 16.775H6.9749V8.22302C7.45503 8.20379 7.92018 8.04617 8.31381 7.76812C8.73467 7.47084 9.05316 7.05032 9.2254 6.56469L10.4812 3.07999V2.99914C10.5093 2.88492 10.5751 2.78335 10.668 2.71087ZM3.2249 16.775V8.22502H5.5249V16.775H3.2249Z" fill="#999999"/>
</svg>
