<svg width="20" height="20" viewBox="0 0 20 20" fill="none" xmlns="http://www.w3.org/2000/svg">
<path fill-rule="evenodd" clip-rule="evenodd" d="M4.16675 1.66669C2.78604 1.66669 1.66675 2.78597 1.66675 4.16669V6.66669C1.66675 7.12692 2.03985 7.50002 2.50009 7.50002C2.96032 7.50002 3.33342 7.12692 3.33342 6.66669V4.16669C3.33342 3.70645 3.70652 3.33335 4.16675 3.33335H15.8334C16.2937 3.33335 16.6668 3.70645 16.6668 4.16669V6.66669C16.6668 7.12692 17.0398 7.50002 17.5001 7.50002C17.9603 7.50002 18.3334 7.12692 18.3334 6.66669V4.16669C18.3334 2.78598 17.2141 1.66669 15.8334 1.66669H4.16675ZM1.66675 13.3334C1.66675 12.8731 2.03985 12.5 2.50009 12.5C2.96032 12.5 3.33342 12.8731 3.33342 13.3334V15.8334C3.33342 16.2936 3.70652 16.6667 4.16675 16.6667H15.8334C16.2937 16.6667 16.6668 16.2936 16.6668 15.8334V13.3334C16.6668 12.8731 17.0398 12.5 17.5001 12.5C17.9603 12.5 18.3334 12.8731 18.3334 13.3334V15.8334C18.3334 17.2141 17.2141 18.3334 15.8334 18.3334H4.16675C2.78604 18.3334 1.66675 17.2141 1.66675 15.8334V13.3334ZM2.50008 9.1667C2.03984 9.1667 1.66675 9.53979 1.66675 10C1.66675 10.4603 2.03984 10.8334 2.50008 10.8334H17.5001C17.9603 10.8334 18.3334 10.4603 18.3334 10C18.3334 9.53979 17.9603 9.1667 17.5001 9.1667H2.50008Z" fill="#999999"/>
</svg>
