<svg width="20" height="20" viewBox="0 0 20 20" fill="none" xmlns="http://www.w3.org/2000/svg">
<path d="M10 18C14.4215 18 18 14.4076 18 9.99999C18 5.57857 14.4076 1.99999 10 1.99999C5.59245 1.99999 2.00005 5.57857 2.00005 9.99999C2.00005 14.4076 5.57863 18 10 18ZM10 3.11916C13.7997 3.11916 16.8809 6.20033 16.8809 9.99999C16.8809 13.7996 13.7997 16.8808 10 16.8808C6.20039 16.8808 3.11922 13.7858 3.11922 9.99999C3.11922 6.20033 6.20039 3.11916 10 3.11916Z" fill="#999999"/>
<path fill-rule="evenodd" clip-rule="evenodd" d="M1.80005 9.99999C1.80005 5.46789 5.48222 1.79999 10 1.79999C14.5179 1.79999 18.2001 5.46789 18.2001 9.99999C18.2001 14.5178 14.5321 18.2 10 18.2C5.46795 18.2 1.80005 14.5178 1.80005 9.99999ZM10 2.19999C5.70268 2.19999 2.20005 5.68925 2.20005 9.99999C2.20005 14.2974 5.68931 17.8 10 17.8C14.3108 17.8 17.8 14.2974 17.8 9.99999C17.8 5.68925 14.2974 2.19999 10 2.19999ZM10 3.31916C6.31085 3.31916 3.31922 6.31079 3.31922 9.99999C3.31922 13.6756 6.31111 16.6808 10 16.6808C13.6892 16.6808 16.6809 13.6892 16.6809 9.99999C16.6809 6.31079 13.6892 3.31916 10 3.31916ZM2.91922 9.99999C2.91922 6.08988 6.08994 2.91916 10 2.91916C13.9102 2.91916 17.0809 6.08988 17.0809 9.99999C17.0809 13.9101 13.9102 17.0808 10 17.0808C6.08968 17.0808 2.91922 13.896 2.91922 9.99999Z" fill="#999999"/>
<path d="M9.62709 4.75165C9.19884 4.75165 8.8606 5.0899 8.8606 5.51814V10.3731C8.8606 10.8013 9.19884 11.1396 9.62709 11.1396H13.2938C13.722 11.1396 14.0602 10.8013 14.0602 10.3731C14.0602 9.94482 13.722 9.60657 13.2938 9.60657H10.3936V5.51814C10.3936 5.0899 10.0553 4.75165 9.62709 4.75165Z" fill="#999999"/>
</svg>
