<svg width="48" height="48" viewBox="0 0 48 48" fill="none" xmlns="http://www.w3.org/2000/svg">
<path d="M32.3892 9H3C2.1709 9 1.5 8.3291 1.5 7.5C1.5 6.6709 2.1709 6 3 6H32.3892C33.2183 6 33.8892 6.6709 33.8892 7.5C33.8892 8.3291 33.2183 9 32.3892 9Z" fill="#999999"/>
<path d="M17.0332 17.25H3C2.1709 17.25 1.5 16.5791 1.5 15.75C1.5 14.9209 2.1709 14.25 3 14.25H17.0332C17.8623 14.25 18.5332 14.9209 18.5332 15.75C18.5332 16.5791 17.8623 17.25 17.0332 17.25Z" fill="#999999"/>
<path d="M17.0332 25.5H3C2.1709 25.5 1.5 24.8291 1.5 24C1.5 23.1709 2.1709 22.5 3 22.5H17.0332C17.8623 22.5 18.5332 23.1709 18.5332 24C18.5332 24.8291 17.8623 25.5 17.0332 25.5Z" fill="#999999"/>
<path d="M17.0332 33.75H3C2.1709 33.75 1.5 33.0791 1.5 32.25C1.5 31.4209 2.1709 30.75 3 30.75H17.0332C17.8623 30.75 18.5332 31.4209 18.5332 32.25C18.5332 33.0791 17.8623 33.75 17.0332 33.75Z" fill="#999999"/>
<path d="M33.5771 42H3C2.1709 42 1.5 41.3291 1.5 40.5C1.5 39.6709 2.1709 39 3 39H33.5771C34.4062 39 35.0771 39.6709 35.0771 40.5C35.0771 41.3291 34.4062 42 33.5771 42Z" fill="#999999"/>
<path d="M45 36.7002C44.6162 36.7002 44.2324 36.5537 43.9395 36.2607L38.2515 30.5728C37.6655 29.9868 37.6655 29.0376 38.2515 28.4517C38.8374 27.8657 39.7866 27.8657 40.3726 28.4517L46.0605 34.1396C46.6465 34.7256 46.6465 35.6748 46.0605 36.2607C45.7676 36.5537 45.3838 36.7002 45 36.7002Z" fill="#999999"/>
<path d="M32.3892 33.873C29.4976 33.8745 26.6074 32.7729 24.4072 30.5728C22.2744 28.4399 21.0996 25.6055 21.0996 22.5894C21.0996 19.5732 22.2744 16.7388 24.4072 14.6074C26.5386 12.4746 29.373 11.2998 32.3892 11.2998C35.4053 11.2998 38.2397 12.4746 40.3726 14.6074C42.5054 16.7388 43.6802 19.5732 43.6802 22.5894C43.6802 25.6055 42.5054 28.4399 40.3726 30.5728C38.1709 32.7729 35.2793 33.873 32.3892 33.873ZM32.3892 14.2998C30.1758 14.2998 28.0942 15.1626 26.5283 16.7285C24.9624 18.2944 24.0996 20.376 24.0996 22.5894C24.0996 24.8042 24.9624 26.8857 26.5283 28.4517C29.7598 31.6831 35.0171 31.6831 38.2515 28.4517C39.8174 26.8857 40.6802 24.8042 40.6802 22.5894C40.6802 20.376 39.8174 18.2944 38.2515 16.7285C36.6855 15.1626 34.604 14.2998 32.3892 14.2998Z" fill="#999999"/>
</svg>
