<svg width="62" height="62" viewBox="0 0 62 62" fill="none" xmlns="http://www.w3.org/2000/svg">
<g filter="url(#filter0_d)">
<rect x="6" y="2" width="50" height="50" rx="25" fill="url(#paint0_linear)"/>
</g>
<path d="M41.8847 41H23.1923C22.9169 41 22.6528 40.8906 22.458 40.6958C22.2633 40.5011 22.1539 40.237 22.1539 39.9615V27.5C22.1539 27.2246 22.2633 26.9604 22.458 26.7657C22.6528 26.5709 22.9169 26.4615 23.1923 26.4615C23.4678 26.4615 23.7319 26.5709 23.9267 26.7657C24.1214 26.9604 24.2308 27.2246 24.2308 27.5V38.9231H40.8462V17.1154C40.8462 16.84 40.7368 16.5758 40.542 16.3811C40.3473 16.1863 40.0832 16.0769 39.8077 16.0769H21.1154C20.84 16.0769 20.5759 15.9675 20.3811 15.7728C20.1864 15.578 20.077 15.3139 20.077 15.0385C20.077 14.763 20.1864 14.4989 20.3811 14.3042C20.5759 14.1094 20.84 14 21.1154 14H39.8077C40.634 14 41.4264 14.3282 42.0106 14.9125C42.5949 15.4967 42.9231 16.2891 42.9231 17.1154V39.9615C42.9231 40.237 42.8137 40.5011 42.619 40.6958C42.4242 40.8906 42.1601 41 41.8847 41Z" fill="white"/>
<path d="M23.1923 28.5385H19.0385C18.763 28.5385 18.4989 28.4291 18.3042 28.2343C18.1094 28.0396 18 27.7754 18 27.5V17.1154C18 16.2891 18.3282 15.4967 18.9125 14.9125C19.4967 14.3282 20.2891 14 21.1154 14C21.9416 14 22.734 14.3282 23.3183 14.9125C23.9025 15.4967 24.2308 16.2891 24.2308 17.1154V27.5C24.2308 27.7754 24.1214 28.0396 23.9266 28.2343C23.7319 28.4291 23.4677 28.5385 23.1923 28.5385ZM20.0769 26.4615H22.1538V17.1154C22.1538 16.84 22.0444 16.5758 21.8497 16.3811C21.6549 16.1863 21.3908 16.0769 21.1154 16.0769C20.84 16.0769 20.5758 16.1863 20.3811 16.3811C20.1863 16.5758 20.0769 16.84 20.0769 17.1154V26.4615Z" fill="white"/>
<path d="M33.5768 30.6154H27.3461C27.0707 30.6154 26.8065 30.506 26.6118 30.3112C26.417 30.1165 26.3076 29.8523 26.3076 29.5769C26.3076 29.3015 26.417 29.0374 26.6118 28.8426C26.8065 28.6479 27.0707 28.5385 27.3461 28.5385H33.5768C33.8523 28.5385 34.1164 28.6479 34.3112 28.8426C34.5059 29.0374 34.6153 29.3015 34.6153 29.5769C34.6153 29.8523 34.5059 30.1165 34.3112 30.3112C34.1164 30.506 33.8523 30.6154 33.5768 30.6154Z" fill="white"/>
<path d="M37.7307 34.7692H27.3461C27.0707 34.7692 26.8065 34.6598 26.6118 34.4651C26.417 34.2703 26.3076 34.0062 26.3076 33.7308C26.3076 33.4554 26.417 33.1912 26.6118 32.9965C26.8065 32.8017 27.0707 32.6923 27.3461 32.6923H37.7307C38.0061 32.6923 38.2702 32.8017 38.465 32.9965C38.6597 33.1912 38.7692 33.4554 38.7692 33.7308C38.7692 34.0062 38.6597 34.2703 38.465 34.4651C38.2702 34.6598 38.0061 34.7692 37.7307 34.7692Z" fill="white"/>
<path d="M35.6538 26.4615H27.3461C27.0707 26.4615 26.8065 26.3521 26.6118 26.1574C26.417 25.9626 26.3076 25.6985 26.3076 25.4231C26.3076 25.1477 26.417 24.8835 26.6118 24.6888C26.8065 24.494 27.0707 24.3846 27.3461 24.3846H35.6538C35.9292 24.3846 36.1933 24.494 36.3881 24.6888C36.5828 24.8835 36.6922 25.1477 36.6922 25.4231C36.6922 25.6985 36.5828 25.9626 36.3881 26.1574C36.1933 26.3521 35.9292 26.4615 35.6538 26.4615Z" fill="white"/>
<path d="M37.7307 19.1923H27.3461C27.0707 19.1923 26.8065 19.0829 26.6118 18.8881C26.417 18.6934 26.3076 18.4293 26.3076 18.1538V15.0385C26.3076 14.763 26.417 14.4989 26.6118 14.3042C26.8065 14.1094 27.0707 14 27.3461 14H37.7307C38.0061 14 38.2702 14.1094 38.465 14.3042C38.6597 14.4989 38.7692 14.763 38.7692 15.0385V18.1538C38.7692 18.4293 38.6597 18.6934 38.465 18.8881C38.2702 19.0829 38.0061 19.1923 37.7307 19.1923ZM28.3845 17.1154H36.6922V16.0769H28.3845V17.1154Z" fill="white"/>
<defs>
<filter id="filter0_d" x="0" y="0" width="62" height="62" filterUnits="userSpaceOnUse" color-interpolation-filters="sRGB">
<feFlood flood-opacity="0" result="BackgroundImageFix"/>
<feColorMatrix in="SourceAlpha" type="matrix" values="0 0 0 0 0 0 0 0 0 0 0 0 0 0 0 0 0 0 127 0"/>
<feOffset dy="4"/>
<feGaussianBlur stdDeviation="3"/>
<feColorMatrix type="matrix" values="0 0 0 0 0 0 0 0 0 0 0 0 0 0 0 0 0 0 0.1 0"/>
<feBlend mode="normal" in2="BackgroundImageFix" result="effect1_dropShadow"/>
<feBlend mode="normal" in="SourceGraphic" in2="effect1_dropShadow" result="shape"/>
</filter>
<linearGradient id="paint0_linear" x1="44.75" y1="45.125" x2="14.75" y2="13.25" gradientUnits="userSpaceOnUse">
<stop stop-color="#14C8BD"/>
<stop offset="1" stop-color="#0CF9C0"/>
</linearGradient>
</defs>
</svg>
