<svg width="62" height="62" viewBox="0 0 62 62" fill="none" xmlns="http://www.w3.org/2000/svg">
<g filter="url(#filter0_d)">
<rect x="6" y="2" width="50" height="50" rx="25" fill="url(#paint0_linear)"/>
</g>
<path d="M41.2482 40.5455H20.0594C19.7785 40.5455 19.509 40.4338 19.3103 40.2351C19.1116 40.0365 19 39.767 19 39.486V14.0595C19 13.7785 19.1116 13.509 19.3103 13.3103C19.509 13.1116 19.7785 13 20.0594 13H34.8916C35.031 12.9992 35.1692 13.0259 35.2983 13.0787C35.4274 13.1314 35.5448 13.2091 35.6438 13.3073L42.0004 19.6639C42.0986 19.7629 42.1763 19.8803 42.229 20.0094C42.2818 20.1384 42.3085 20.2767 42.3077 20.4161V39.486C42.3077 39.767 42.1961 40.0365 41.9974 40.2351C41.7987 40.4338 41.5292 40.5455 41.2482 40.5455ZM21.1189 38.4266H40.1888V20.8505L34.4572 15.1189H21.1189V38.4266Z" fill="white"/>
<path d="M41.2482 21.4755H34.8916C34.6106 21.4755 34.3411 21.3639 34.1425 21.1652C33.9438 20.9665 33.8322 20.6971 33.8322 20.4161V14.0595C33.8332 13.8503 33.8961 13.6461 34.013 13.4727C34.1299 13.2992 34.2955 13.1643 34.489 13.0848C34.6819 13.0036 34.8946 12.9815 35.1001 13.0211C35.3056 13.0607 35.4948 13.1602 35.6438 13.3073L42.0004 19.6639C42.1474 19.8129 42.247 20.0021 42.2866 20.2076C42.3262 20.4131 42.304 20.6257 42.2229 20.8187C42.1434 21.0122 42.0085 21.1778 41.835 21.2947C41.6616 21.4116 41.4574 21.4745 41.2482 21.4755ZM35.951 19.3567H38.695L35.951 16.6127V19.3567Z" fill="white"/>
<path d="M41.2482 35.2483H20.0594C19.7785 35.2483 19.509 35.1366 19.3103 34.9379C19.1116 34.7393 19 34.4698 19 34.1888C19 33.9078 19.1116 33.6384 19.3103 33.4397C19.509 33.241 19.7785 33.1294 20.0594 33.1294H41.2482C41.5292 33.1294 41.7987 33.241 41.9974 33.4397C42.1961 33.6384 42.3077 33.9078 42.3077 34.1888C42.3077 34.4698 42.1961 34.7393 41.9974 34.9379C41.7987 35.1366 41.5292 35.2483 41.2482 35.2483Z" fill="white"/>
<path d="M30.6537 24.6539H24.2971C24.0161 24.6539 23.7467 24.5422 23.548 24.3436C23.3493 24.1449 23.2377 23.8754 23.2377 23.5944C23.2377 23.3134 23.3493 23.044 23.548 22.8453C23.7467 22.6466 24.0161 22.535 24.2971 22.535H30.6537C30.9347 22.535 31.2042 22.6466 31.4029 22.8453C31.6016 23.044 31.7132 23.3134 31.7132 23.5944C31.7132 23.8754 31.6016 24.1449 31.4029 24.3436C31.2042 24.5422 30.9347 24.6539 30.6537 24.6539Z" fill="white"/>
<path d="M35.9509 28.8916H24.2971C24.0161 28.8916 23.7467 28.78 23.548 28.5813C23.3493 28.3826 23.2377 28.1132 23.2377 27.8322C23.2377 27.5512 23.3493 27.2817 23.548 27.083C23.7467 26.8844 24.0161 26.7727 24.2971 26.7727H35.9509C36.2319 26.7727 36.5014 26.8844 36.7001 27.083C36.8988 27.2817 37.0104 27.5512 37.0104 27.8322C37.0104 28.1132 36.8988 28.3826 36.7001 28.5813C36.5014 28.78 36.2319 28.8916 35.9509 28.8916Z" fill="white"/>
<defs>
<filter id="filter0_d" x="0" y="0" width="62" height="62" filterUnits="userSpaceOnUse" color-interpolation-filters="sRGB">
<feFlood flood-opacity="0" result="BackgroundImageFix"/>
<feColorMatrix in="SourceAlpha" type="matrix" values="0 0 0 0 0 0 0 0 0 0 0 0 0 0 0 0 0 0 127 0"/>
<feOffset dy="4"/>
<feGaussianBlur stdDeviation="3"/>
<feColorMatrix type="matrix" values="0 0 0 0 0 0 0 0 0 0 0 0 0 0 0 0 0 0 0.1 0"/>
<feBlend mode="normal" in2="BackgroundImageFix" result="effect1_dropShadow"/>
<feBlend mode="normal" in="SourceGraphic" in2="effect1_dropShadow" result="shape"/>
</filter>
<linearGradient id="paint0_linear" x1="44.75" y1="45.125" x2="14.75" y2="13.25" gradientUnits="userSpaceOnUse">
<stop stop-color="#1787EE"/>
<stop offset="1" stop-color="#6CCAFF"/>
</linearGradient>
</defs>
</svg>
